<?xml version="1.0" standalone="no"?>
<!DOCTYPE svg PUBLIC "-//W3C//DTD SVG 20010904//EN"
 "http://www.w3.org/TR/2001/REC-SVG-20010904/DTD/svg10.dtd">
<svg version="1.0" xmlns="http://www.w3.org/2000/svg"
 width="360.000000pt" height="360.000000pt" viewBox="0 0 360.000000 360.000000"
 preserveAspectRatio="xMidYMid meet">
<metadata>
Created by potrace 1.14, written by Peter Selinger 2001-2017
</metadata>
<g transform="translate(0.000000,360.000000) scale(0.100000,-0.100000)"
fill="#000000" stroke="none">
<path d="M1723 2676 c-10 -13 -52 -63 -94 -112 -268 -312 -434 -605 -489 -863
-28 -128 -24 -279 9 -381 43 -136 144 -265 272 -348 32 -21 56 -42 51 -47 -4
-5 -2 -5 5 -1 7 4 26 0 42 -9 51 -26 57 -16 9 14 -66 42 -104 85 -141 160 -30
63 -32 71 -31 176 1 98 4 119 33 196 57 153 197 370 341 529 46 51 49 53 50
29 1 -67 82 -172 207 -265 201 -150 296 -302 296 -474 0 -118 -31 -192 -122
-292 -14 -16 -20 -28 -14 -28 16 0 149 145 193 210 90 133 129 241 137 385 14
271 -114 493 -406 702 -51 37 -124 101 -163 143 -77 84 -148 211 -148 266 0
40 -11 43 -37 10z"/>
<path d="M2094 929 c-19 -22 -19 -22 3 -10 24 12 39 31 25 31 -5 0 -17 -10
-28 -21z"/>
</g>
</svg>
